<?xml version="1.0" encoding="UTF-8"?>
<!DOCTYPE svg PUBLIC "-//W3C//DTD SVG 1.0//EN" "http://www.w3.org/TR/2001/REC-SVG-20010904/DTD/svg10.dtd">
<!-- Creator: CorelDRAW -->
<svg xmlns="http://www.w3.org/2000/svg" xml:space="preserve" width="792.876mm" height="232.421mm" version="1.0" style="shape-rendering:geometricPrecision; text-rendering:geometricPrecision; image-rendering:optimizeQuality; fill-rule:evenodd; clip-rule:evenodd"
viewBox="0 0 101929.13 29879.18"
 xmlns:xlink="http://www.w3.org/1999/xlink"
 xmlns:xodm="http://www.corel.com/coreldraw/odm/2003">
 <defs>
  <style type="text/css">
   <![CDATA[
    .str0 {stroke:black;stroke-width:25.72;stroke-miterlimit:22.9256}
    .fil3 {fill:black;fill-rule:nonzero}
    .fil0 {fill:black;fill-rule:nonzero}
    .fil1 {fill:#20AD00;fill-rule:nonzero}
    .fil2 {fill:url(#id0);fill-rule:nonzero}
    .fil4 {fill:url(#id1);fill-rule:nonzero}
   ]]>
  </style>
  <linearGradient id="id0" gradientUnits="userSpaceOnUse" x1="20831.93" y1="14505.59" x2="31620.36" y2="11326.09">
   <stop offset="0" style="stop-opacity:1; stop-color:black"/>
   <stop offset="1" style="stop-opacity:1; stop-color:#16A34A"/>
  </linearGradient>
  <radialGradient id="id1" gradientUnits="userSpaceOnUse" gradientTransform="matrix(1.67056 -1.07356 1.38886 1.2913 -48839 33876)" cx="36336.27" cy="17621.15" r="8890.79" fx="36336.27" fy="17621.15">
   <stop offset="0" style="stop-opacity:1; stop-color:#20AD00"/>
   <stop offset="0.619608" style="stop-opacity:1; stop-color:#105600"/>
   <stop offset="1" style="stop-opacity:1; stop-color:black"/>
  </radialGradient>
 </defs>
 <g id="Camada_x0020_1">
  <metadata id="CorelCorpID_0Corel-Layer"/>
  <g id="_1300096110480">
   <path class="fil0" d="M51346.94 12658.62c-29.41,-29.48 -121.13,-120.06 -276.33,-271.58 -751.28,-739.64 -1610.71,-1104.07 -2579.66,-1091.29 -1864.88,22.38 -3249.89,1322.88 -3396.85,3181.86 -78.71,1000.48 69.39,1949.34 671.37,2744.17 664.34,876.1 1560.26,1320.44 2688.97,1331.11 1168.86,11.7 2018.95,-496.29 2809.03,-1276.99 23.45,-23.51 62.3,-25.84 86.94,-3.47l1493.36 1286.19c11.65,9.59 13,26.01 4.77,37.65 -743.27,994.74 -1696.74,1628.47 -2860.76,1902.53 -2890.23,679.61 -5802.62,-460.96 -6921.96,-3282.93 -470.35,-1186.25 -464.38,-2927.66 -97.68,-4156.33 476.29,-1590.82 1651.97,-2905.29 3197.18,-3483.82 2346.86,-878.37 5187.58,-421.03 6769.03,1655.44 17.55,23.51 15.27,56.35 -5.91,75.31l-1466.26 1353.26c-31.7,30.56 -83.48,29.41 -115.24,-1.13z"/>
   <path class="fil1" d="M79891.7 20461.18l-2054.06 0c-25.79,0 -47.03,-21.24 -47.03,-47.03l0 -11087.82c0,-17.61 15.27,-31.74 32.88,-31.74 2056.39,-5.91 3533.28,-1.14 4430.39,11.85 2236.4,31.75 4447.94,1045.19 4533.75,3570.76 21.24,609.07 -19.89,1087.65 -122.1,1434.52 -531.5,1801.39 -2156.5,2638.49 -3941.32,2686.65 -727.77,20.05 -1620.28,27.15 -2677.32,21.24 -35.16,0 -63.44,29.43 -63.44,64.57l0 3286.41c0,50.65 -41.11,90.58 -91.76,90.58zm86.99 -9197.16l7.04 3837.94c0,24.66 18.91,43.4 43.55,43.4l2468.06 -3.47c1151.08,-2.28 2082.16,-827.72 2079.89,-1843.64l0 -244.66c-2.28,-1017.11 -935.9,-1838.88 -2086.93,-1836.61l-2468.06 3.64c-23.51,0 -43.55,19.87 -43.55,43.39z"/>
   <path class="fil0" d="M65865.7 12408.12l1894.08 0c40.14,0 73.02,32.88 73.02,73.02l0 1608.43c0,29.41 -24.64,54.06 -54.06,54.06l-1923.56 0c-42.46,0 -76.49,34.03 -76.49,75.31 0,819.48 -3.63,1941.16 -10.67,3367.44 -2.28,417.36 37.65,700.8 121.19,852.38 332.68,607.88 1248.71,422.13 1723.64,84.62 14.14,-10.5 33.05,-4.55 38.79,11.87l511.63 1398.01c17.55,47.03 -1.2,99.95 -43.62,125.74 -886.55,542.17 -1834.27,683.24 -2841.85,423.31 -1153.57,-296.22 -1607.22,-1275.69 -1610.86,-2384.51 -8.23,-2472.61 -10.55,-3756.75 -9.37,-3854.21 3.42,-47.03 -32.88,-86.94 -78.77,-88.31l-1047.67 -13.92c-22.37,0 -41.11,-18.9 -41.11,-41.28l0 -1601.32c0,-45.88 37.49,-83.54 83.37,-83.54l1004.28 0c45.66,0 82.17,-36.51 82.17,-82.34l0 -2201.09c0,-28.28 22.38,-50.43 50.65,-50.43l1995.23 0c39.93,0 71.84,32.88 71.84,72.8l0 2165.88c0,48.16 39.98,88.09 88.14,88.09z"/>
   <path class="fil0" d="M57844.4 12250.59c2484.46,94.04 4313.96,1847.11 4218.84,4352.81 -95.4,2506.85 -2051.83,4115.21 -4537.44,4021.21 -2484.46,-94.04 -4314.03,-1847.11 -4218.84,-4353.94 95.18,-2505.72 2051.83,-4115.26 4537.44,-4020.08zm-179.86 1748.67c-1239.33,17.39 -2228.18,1123.79 -2209.05,2472.06 18.52,1347.74 1037.91,2427.15 2277.09,2409.39 1239.38,-17.39 2228.16,-1123.94 2209.26,-2472.06 -18.74,-1347.9 -1038.14,-2427.32 -2277.31,-2409.39z"/>
   <path class="fil0" d="M74078.62 19604.03c0,-18.74 -22.37,-27.14 -35.38,-14.13 -1068.69,1099.45 -2667.73,1289.82 -4070.51,738.44 -1329.75,-522.13 -1657.94,-2256.44 -1046.52,-3395.67 431.55,-804.21 1296.86,-1181.7 2144.69,-1289.83 899.55,-115.28 1846.13,-99.95 2839.52,44.7 41.28,5.73 77.62,-24.86 78.77,-65.94 41.28,-919.43 -380.9,-1455.71 -1266.32,-1608.42 -890.02,-154.01 -1757.67,36.29 -2603.16,571.43 -32.88,21.02 -77.64,10.5 -98.82,-22.38l-837.09 -1328.62c-24.64,-40.08 -13,-91.71 26.98,-115.22 1261.72,-740.78 2647.86,-1015.98 4159.96,-824.25 1700.3,214.03 2659.71,1271.07 2647.85,2982.86 -1.13,314.05 -2.28,2011.85 -1.13,5093.59 0,51.78 -41.06,92.86 -92.91,92.86l-1777.71 0c-37.65,0 -68.21,-30.56 -68.21,-68.04l0 -791.38zm-108.18 -2511.44c-4.77,-28.28 -27.14,-49.47 -55.27,-51.8 -505.65,-45.83 -1047.67,-69.34 -1624.99,-71.67 -638.33,-3.63 -1380.41,98.65 -1536.76,807.68 -412.64,1879.02 3614.32,1723.81 3217.02,-684.21z"/>
   <path class="fil1" d="M101926.16 16591.65c-88.14,2509.11 -2042.46,4125.93 -4530.35,4039.96 -2489.07,-87.01 -4325.67,-1836.44 -4238.73,-4346.91 88.09,-2509.12 2042.26,-4125.72 4531.49,-4039.9 2487.94,86.94 4324.53,1836.59 4237.59,4346.86zm-4378.23 -2619.58c-1263.28,-4.82 -2292.04,1093.33 -2296.81,2451.8 -4.6,1358.79 1015.98,2462.85 2279.58,2467.61 1263.06,4.77 2291.82,-1093.55 2296.64,-2451.8 4.77,-1359.01 -1015.98,-2463.06 -2279.42,-2467.61z"/>
   <path class="fil1" d="M89981.21 13582.77c0,35.37 47.01,47.01 62.35,15.27 479.66,-982.88 1625,-1367.4 2657.23,-1321.52 42.41,2.28 76.44,37.65 76.44,81.04l0 1827.23c0,24.64 -21.02,43.55 -44.53,39.93 -656.1,-71.67 -1544.01,57.7 -2060.02,507.99 -464.59,404.4 -664.33,1145.13 -671.37,1742.55 -9.54,730.05 -9.54,2039.97 0,3931.78 0,28.28 -23.51,51.8 -51.8,51.8l-1978.8 0c-28.28,0 -50.65,-22.38 -50.65,-50.66l0 -7951.79c0,-22.38 18.74,-39.98 41.11,-39.98l1951.83 0c37.65,0 68.21,30.61 68.21,68.25l0 1098.11z"/>
   <g>
    <g>
     <g>
      <path class="fil2" d="M17411.2 18434.11c-24.67,5.89 -47.01,-17.77 -39.92,-42.44l2298.69 -7717.92c17.57,-58.65 71.68,-99.98 133.96,-99.98l8208.24 -16.42c29.25,0 57.54,8.2 81.04,24.67l760.85 511.6c31.66,21.04 38.76,65.69 14.14,96.35 -2135.88,2638.94 -7925.74,6406.11 -11457.01,7244.12l0.01 0.01z"/>
      <path class="fil3 str0" d="M21357.19 22909.17l-2134.17 6912.58 -61.01 44.56 -5250.04 0 -52.95 -70.53 1552.14 -5514.33 5946.05 -1372.22 0 -0.06z"/>
      <path class="fil4" d="M30361.5 11020.8c28.3,-38.81 17.57,-92.93 -21.24,-118.9l-3389.77 -2280.97c-34.03,-23.51 -23.51,-76.41 16.42,-84.67l11579.38 -2457.31c64.59,-14.14 122.13,44.56 106.82,109.34l-2358.49 9873.14c-5.94,23.51 -34.23,30.56 -50.64,12.98 -606.61,-659.71 -1147.45,-1331.1 -1621.42,-2011.85 -23.51,-34.03 -73.95,-34.03 -98.82,0 -7902.47,10865.56 -22523.91,11220.61 -34493.04,10580.94 -20.03,0 -35.34,-18.68 -29.4,-37.65l7308.76 -24543.52c10.67,-36.5 44.7,-62.32 83.46,-62.32l25233.68 0c27.14,0 45.8,25.78 37.65,51.8l-1390.95 4338.68c-16.42,50.64 -63.43,85.82 -116.38,85.82l-19588.73 0c-76.41,0 -143.57,49.29 -165.72,122.28l-4604.47 15461.68c-10.52,37.65 16.46,74.15 55.28,74.15 9272.03,-22.1 17472.87,-718.6 23507.66,-9113.56l-0.05 -0.05 0.01 0zm-11138.34 18801c-8.25,26.93 -32.87,44.56 -61.01,44.56l61.01 -44.56zm-5311.06 44.54c-36.34,0 -63.48,-35.19 -53,-70.53l53 70.53z"/>
     </g>
    </g>
   </g>
  </g>
 </g>
</svg>
