<?xml version="1.0" encoding="UTF-8"?>
<!DOCTYPE svg PUBLIC "-//W3C//DTD SVG 1.1//EN" "http://www.w3.org/Graphics/SVG/1.1/DTD/svg11.dtd">
<!-- Creator: CorelDRAW -->
<svg xmlns="http://www.w3.org/2000/svg" xml:space="preserve" width="792.755mm" height="232.321mm" version="1.1" style="shape-rendering:geometricPrecision; text-rendering:geometricPrecision; image-rendering:optimizeQuality; fill-rule:evenodd; clip-rule:evenodd"
viewBox="0 0 101917.97 29867.59"
 xmlns:xlink="http://www.w3.org/1999/xlink"
 xmlns:xodm="http://www.corel.com/coreldraw/odm/2003">
 <defs>
  <style type="text/css">
   <![CDATA[
    .fil0 {fill:#FEFEFE;fill-rule:nonzero}
    .fil1 {fill:#20AD00;fill-rule:nonzero}
    .fil3 {fill:url(#id0);fill-rule:nonzero}
    .fil2 {fill:url(#id1);fill-rule:nonzero}
   ]]>
  </style>
  <linearGradient id="id0" gradientUnits="userSpaceOnUse" x1="20832.37" y1="14512.49" x2="31640.37" y2="11330.07">
   <stop offset="0" style="stop-opacity:1; stop-color:white"/>
   <stop offset="1" style="stop-opacity:1; stop-color:#20AD00"/>
  </linearGradient>
  <radialGradient id="id1" gradientUnits="userSpaceOnUse" gradientTransform="matrix(1.74763 -1.12258 1.45294 1.35026 -53494 34949)" cx="36724.46" cy="17920.55" r="3499.58" fx="36724.46" fy="17920.55">
   <stop offset="0" style="stop-opacity:1; stop-color:#20AD00"/>
   <stop offset="0.631373" style="stop-opacity:1; stop-color:#90D680"/>
   <stop offset="1" style="stop-opacity:1; stop-color:white"/>
  </radialGradient>
 </defs>
 <g id="Camada_x0020_1">
  <metadata id="CorelCorpID_0Corel-Layer"/>
  <g id="_3193309982224">
   <path class="fil0" d="M51333.59 12659.18c-29.43,-29.47 -121.14,-120.05 -276.36,-271.59 -751.32,-739.67 -1610.76,-1104.11 -2579.76,-1091.32 -1864.97,22.37 -3250.04,1322.93 -3397.01,3181.98 -78.72,1000.53 69.4,1949.42 671.4,2744.29 664.37,876.15 1560.33,1320.5 2689.09,1331.17 1168.91,11.7 2019.04,-496.3 2809.15,-1277.04 23.45,-23.51 62.3,-25.84 86.95,-3.46l1493.43 1286.25c11.65,9.59 13,26.01 4.77,37.66 -743.31,994.77 -1696.8,1628.53 -2860.89,1902.61 -2890.35,679.64 -5802.87,-460.98 -6922.26,-3283.08 -470.36,-1186.29 -464.4,-2927.79 -97.68,-4156.51 476.32,-1590.89 1652.04,-2905.42 3197.32,-3483.96 2346.96,-878.41 5187.8,-421.07 6769.32,1655.52 17.55,23.51 15.27,56.34 -5.9,75.3l-1466.34 1353.33c-31.69,30.55 -83.49,29.41 -115.23,-1.14z"/>
   <path class="fil1" d="M79879.58 20462.08l-2054.15 0c-25.79,0 -47.03,-21.24 -47.03,-47.03l0 -11088.3c0,-17.6 15.27,-31.74 32.89,-31.74 2056.47,-5.9 3533.43,-1.14 4430.59,11.87 2236.5,31.74 4448.14,1045.22 4533.95,3570.92 21.24,609.1 -19.88,1087.68 -122.11,1434.58 -531.53,1801.47 -2156.6,2638.6 -3941.49,2686.76 -727.8,20.04 -1620.35,27.14 -2677.44,21.24 -35.16,0 -63.45,29.41 -63.45,64.58l0 3286.54c0,50.65 -41.11,90.58 -91.77,90.58zm87 -9197.55l7.05 3838.12c0,24.65 18.91,43.39 43.56,43.39l2468.17 -3.46c1151.13,-2.28 2082.26,-827.76 2079.99,-1843.73l0 -244.67c-2.28,-1017.16 -935.96,-1838.95 -2087.03,-1836.67l-2468.17 3.63c-23.5,0 -43.56,19.89 -43.56,43.39z"/>
   <path class="fil0" d="M65852.98 12408.67l1894.17 0c40.14,0 73.02,32.89 73.02,73.04l0 1608.49c0,29.41 -24.65,54.07 -54.06,54.07l-1923.64 0c-42.46,0 -76.49,34.02 -76.49,75.3 0,819.53 -3.63,1941.24 -10.67,3367.6 -2.28,417.38 37.66,700.82 121.2,852.4 332.69,607.92 1248.76,422.15 1723.72,84.63 14.14,-10.52 33.05,-4.55 38.8,11.85l511.64 1398.07c17.55,47.03 -1.2,99.96 -43.61,125.75 -886.6,542.2 -1834.36,683.27 -2841.99,423.34 -1153.62,-296.24 -1607.29,-1275.74 -1610.92,-2384.63 -8.24,-2472.71 -10.57,-3756.9 -9.39,-3854.36 3.42,-47.03 -32.87,-86.96 -78.77,-88.31l-1047.71 -13.92c-22.37,0 -41.11,-18.91 -41.11,-41.28l0 -1601.4c0,-45.88 37.49,-83.54 83.37,-83.54l1004.32 0c45.67,0 82.18,-36.51 82.18,-82.34l0 -2201.18c0,-28.27 22.38,-50.43 50.67,-50.43l1995.3 0c39.93,0 71.84,32.89 71.84,72.82l0 2165.96c0,48.17 39.98,88.09 88.14,88.09z"/>
   <path class="fil0" d="M57831.32 12251.13c2484.57,94.06 4314.16,1847.19 4219.03,4353 -95.41,2506.95 -2051.92,4115.39 -4537.64,4021.4 -2484.57,-94.06 -4314.21,-1847.19 -4219.03,-4354.14 95.19,-2505.81 2051.92,-4115.44 4537.64,-4020.26zm-179.87 1748.75c-1239.39,17.39 -2228.27,1123.84 -2209.14,2472.18 18.53,1347.79 1037.96,2427.25 2277.19,2409.48 1239.44,-17.38 2228.27,-1123.99 2209.36,-2472.17 -18.74,-1347.96 -1038.18,-2427.41 -2277.41,-2409.49z"/>
   <path class="fil0" d="M74066.25 19604.9c0,-18.74 -22.37,-27.14 -35.37,-14.14 -1068.73,1099.51 -2667.86,1289.89 -4070.7,738.47 -1329.8,-522.14 -1658.01,-2256.54 -1046.57,-3395.82 431.57,-804.24 1296.92,-1181.74 2144.78,-1289.87 899.6,-115.29 1846.21,-99.96 2839.65,44.69 41.28,5.75 77.63,-24.86 78.77,-65.93 41.28,-919.49 -380.92,-1455.77 -1266.37,-1608.5 -890.06,-154.02 -1757.75,36.31 -2603.27,571.46 -32.89,21.02 -77.64,10.5 -98.81,-22.37l-837.13 -1328.67c-24.66,-40.1 -13.01,-91.73 26.97,-115.24 1261.77,-740.8 2647.97,-1016.01 4160.14,-824.29 1700.37,214.06 2659.83,1271.14 2647.96,2982.99 -1.13,314.06 -2.28,2011.94 -1.13,5093.81 0,51.8 -41.06,92.86 -92.91,92.86l-1777.79 0c-37.66,0 -68.21,-30.56 -68.21,-68.05l0 -791.4zm-108.18 -2511.56c-4.77,-28.28 -27.14,-49.46 -55.26,-51.8 -505.68,-45.83 -1047.71,-69.35 -1625.07,-71.67 -638.36,-3.63 -1380.47,98.66 -1536.81,807.72 -412.67,1879.1 3614.48,1723.89 3217.14,-684.24z"/>
   <path class="fil1" d="M101915 16592.38c-88.14,2509.23 -2042.55,4126.11 -4530.54,4040.13 -2489.17,-87 -4325.86,-1836.52 -4238.9,-4347.1 88.09,-2509.22 2042.33,-4125.9 4531.67,-4040.08 2488.04,86.96 4324.73,1836.69 4237.77,4347.05zm-4378.42 -2619.69c-1263.34,-4.82 -2292.14,1093.38 -2296.91,2451.9 -4.6,1358.85 1016.02,2462.96 2279.68,2467.73 1263.12,4.77 2291.92,-1093.6 2296.74,-2451.9 4.77,-1359.07 -1016.01,-2463.18 -2279.52,-2467.73z"/>
   <path class="fil1" d="M89969.52 13583.38c0,35.38 47.02,47.03 62.35,15.27 479.68,-982.92 1625.07,-1367.46 2657.35,-1321.56 42.41,2.28 76.44,37.64 76.44,81.05l0 1827.3c0,24.66 -21.02,43.56 -44.53,39.93 -656.13,-71.67 -1544.08,57.7 -2060.1,508.01 -464.62,404.43 -664.37,1145.18 -671.41,1742.63 -9.54,730.08 -9.54,2040.06 0,3931.95 0,28.28 -23.51,51.8 -51.78,51.8l-1978.9 0c-28.28,0 -50.65,-22.37 -50.65,-50.65l0 -7952.15c0,-22.37 18.74,-39.98 41.11,-39.98l1951.92 0c37.66,0 68.21,30.61 68.21,68.27l0 1098.15z"/>
   <path class="fil2" d="M30362.84 11021.28c28.27,-38.84 17.56,-92.92 -21.24,-118.92l-3389.92 -2281.05c-34.03,-23.53 -23.5,-76.44 16.43,-84.66l11579.91 -2457.45c64.58,-14.15 122.1,44.52 106.81,109.32l-2358.62 9873.57c-5.97,23.53 -34.24,30.56 -50.64,13 -606.62,-659.75 -1147.52,-1331.17 -1621.51,-2011.95 -23.49,-34.02 -73.95,-34.02 -98.81,0 -3402.86,4678.81 -8052.02,7407.67 -13198.32,8948.54l-2102.94 6811.38c-8.22,26.93 -32.86,44.52 -60.98,44.52l-5250.28 0c-36.37,0 -63.52,-35.2 -52.99,-70.52l1552.22 -5514.59 52.61 -12.15c-5159.29,731.36 -10520.08,636.83 -15433.84,374.19 -20.06,0 -35.33,-18.68 -29.43,-37.64l7309.1 -24544.59c10.64,-36.52 44.68,-62.29 83.48,-62.29l25234.78 0c27.15,0 45.83,25.76 37.68,51.8l-1391.03 4338.86c-16.44,50.64 -63.46,85.79 -116.39,85.79l-19589.59 0c-76.42,0 -143.55,49.3 -165.7,122.29l-4604.71 15462.33c-10.53,37.66 16.47,74.18 55.24,74.18 9272.43,-22.13 17473.63,-718.66 23508.69,-9113.96z"/>
   <path class="fil3" d="M17412.13 18434.96c-24.66,5.9 -47.03,-17.77 -39.93,-42.43l2298.8 -7718.26c17.56,-58.68 71.69,-99.96 133.99,-99.96l8208.62 -16.42c29.25,0 57.53,8.23 81.05,24.65l760.85 511.65c31.69,21.02 38.79,65.71 14.13,96.32 -2136,2639.09 -7926.08,6406.39 -11457.5,7244.44z"/>
  </g>
 </g>
</svg>
